/* XPM */
static char *rightscroll[]={
"16 15 2 1",
"# c #ff0000",
". c #ffffff",
"..........#.....",
"..........##....",
"...........#....",
"............#...",
".............#..",
".............##.",
"..............#.",
"################",
"..............#.",
".............#..",
"............#...",
"...........#....",
"..........#.....",
".........#......",
"........#......."};
